# xmcd
#
# Track frame offsets: 
#        150
#        4477
#        28639
#        50995
#        72422
#        93957
#        118155
#        141087
#        160577
#        182408
#        209562
#        234093
#        258028
#        289228
#        311157
#
# Disc length: 4598 seconds
#
# Revision: 0
# Processed by: cddbd v1.5.2PL0 Copyright (c) Steve Scherf et al.
# Submitted via: ExactAudioCopy v0.95b4
#
DISCID=d611f40f
DTITLE=Claudio Baglioni - Acustico 1 di 2
DYEAR=2000
DGENRE=
TTITLE0=Prologo
TTITLE1=Notte di note. Note di notte
TTITLE2=Io dal mare
TTITLE3=Acqua dalla luna
TTITLE4=Poster
TTITLE5=Ragazze dall'est
TTITLE6=La piana dei cavalli bradi
TTITLE7=Io, lui e la cana femmina
TTITLE8=Stai su
TTITLE9=Reginella Regine'
TTITLE10=Un modno a forma di te
TTITLE11=Noi no
TTITLE12=Tamburi lontani
TTITLE13=Fotografie
TTITLE14=Fammi andare via
EXTD=
EXTT0=
EXTT1=
EXTT2=
EXTT3=
EXTT4=
EXTT5=
EXTT6=
EXTT7=
EXTT8=
EXTT9=
EXTT10=
EXTT11=
EXTT12=
EXTT13=
EXTT14=
PLAYORDER=
